# xmcd
#
# Track frame offsets:
#	182
#	13585
#	30977
#	46550
#	63562
#	80610
#	92627
#	108067
#	124842
#	142877
#
# Disc length: 2129 seconds
#
# Revision: 5
# Processed by: cddbd v1.5.2PL0 Copyright (c) Steve Scherf et al.
# Submitted via: EZCDAudioConverter 6.0.5.1
#
DISCID=6f084f0a
DTITLE=Forester Sisters - I Got A Date
DYEAR=1992
DGENRE=Country
TTITLE0=Show Me A Woman
TTITLE1=Redneck Romeo
TTITLE2=I Only Have Eyes For You
TTITLE3=I Got A Date
TTITLE4=Another Shoulder At The Wheel
TTITLE5=What'll You Do About Me
TTITLE6=Wanda
TTITLE7=Their Hearts Are Dancing
TTITLE8=Help Me Get Over You
TTITLE9=She Makes It Look Easy
EXTD=
EXTT0=
EXTT1=
EXTT2=
EXTT3=
EXTT4=
EXTT5=
EXTT6=
EXTT7=
EXTT8=
EXTT9=
PLAYORDER=
